<?xml version="1.0" encoding="UTF-8"?>
<svg width="356px" height="243px" viewBox="0 0 356 243" version="1.1" xmlns="http://www.w3.org/2000/svg" xmlns:xlink="http://www.w3.org/1999/xlink">
    <!-- Generator: Sketch 49.1 (51147) - http://www.bohemiancoding.com/sketch -->
    <title>engine-architecture</title>
    <desc>Created with Sketch.</desc>
    <defs>
        <rect id="path-1" x="0" y="0" width="62" height="28" rx="14"></rect>
        <rect id="path-2" x="0" y="0" width="62" height="28" rx="14"></rect>
        <rect id="path-3" x="0" y="0" width="62" height="28" rx="14"></rect>
        <rect id="path-4" x="0" y="0" width="152" height="28" rx="14"></rect>
        <rect id="path-5" x="0" y="0" width="95" height="28" rx="14"></rect>
        <rect id="path-6" x="0" y="0" width="90" height="28" rx="14"></rect>
        <rect id="path-7" x="0" y="0" width="90" height="28" rx="14"></rect>
        <rect id="path-8" x="0" y="0" width="171.9" height="37.8" rx="18.9"></rect>
    </defs>
    <g id="Page-1" stroke="none" stroke-width="1" fill="none" fill-rule="evenodd">
        <g id="engine-architecture">
            <g id="Paths" transform="translate(45.000000, 23.000000)" stroke="#14CBC4" stroke-width="1.6">
                <path d="M35.1471471,-35.2 C188.516517,-35.2 79.8798799,227.2 226.858859,227.2" id="Path-4-Copy" transform="translate(131.003003, 96.000000) rotate(-270.000000) translate(-131.003003, -96.000000) "></path>
                <path d="M39.1411411,-35.2 C192.510511,-35.2 83.8738739,227.2 230.852853,227.2" id="Path-4-Copy-2" transform="translate(134.996997, 96.000000) scale(-1, 1) rotate(-270.000000) translate(-134.996997, -96.000000) "></path>
                <path d="M133.798799,2.4 L133.798799,191.614937" id="Line-3"></path>
                <ellipse id="Oval-5-Copy-15" fill="#FFFFFF" cx="22.3663664" cy="56" rx="4.79279279" ry="4.8"></ellipse>
                <ellipse id="Oval-5-Copy-19" fill="#FFFFFF" cx="19.96997" cy="136.8" rx="4.79279279" ry="4.8"></ellipse>
                <ellipse id="Oval-5-Copy-18" fill="#FFFFFF" cx="134.198198" cy="168.8" rx="4.79279279" ry="4.8"></ellipse>
                <ellipse id="Oval-5-Copy-17" fill="#FFFFFF" cx="234.048048" cy="65.6" rx="4.79279279" ry="4.8"></ellipse>
                <ellipse id="Oval-5-Copy-20" fill="#FFFFFF" cx="230.054054" cy="124" rx="4.79279279" ry="4.8"></ellipse>
            </g>
            <g id="diagram-primary" transform="translate(18.000000, 0.000000)">
                <g id="diagram-button">
                    <g id="Rectangle-12-Copy-5">
                        <use fill="#FFFFFF" fill-rule="evenodd" xlink:href="#path-1"></use>
                        <rect stroke="#14CBC4" stroke-width="1.6" x="0.8" y="0.8" width="60.4" height="26.4" rx="13.2"></rect>
                    </g>
                    <text id="Browser" font-family="SourceSansPro-Semibold, Source Sans Pro" font-size="11" font-weight="500" letter-spacing="0.392857134" fill="#343C5A">
                        <tspan x="20.6257143" y="17">Web</tspan>
                    </text>
                </g>
            </g>
            <g id="diagram-primary" transform="translate(148.000000, 0.000000)">
                <g id="diagram-button">
                    <g id="Rectangle-12-Copy-5">
                        <use fill="#FFFFFF" fill-rule="evenodd" xlink:href="#path-2"></use>
                        <rect stroke="#14CBC4" stroke-width="1.6" x="0.8" y="0.8" width="60.4" height="26.4" rx="13.2"></rect>
                    </g>
                    <text id="Browser" font-family="SourceSansPro-Semibold, Source Sans Pro" font-size="11" font-weight="500" letter-spacing="0.392857134" fill="#343C5A">
                        <tspan x="22.7652143" y="17">iOS</tspan>
                    </text>
                </g>
            </g>
            <g id="diagram-primary" transform="translate(276.000000, 0.000000)">
                <g id="diagram-button">
                    <g id="Rectangle-12-Copy-5">
                        <use fill="#FFFFFF" fill-rule="evenodd" xlink:href="#path-3"></use>
                        <rect stroke="#14CBC4" stroke-width="1.6" x="0.8" y="0.8" width="60.4" height="26.4" rx="13.2"></rect>
                    </g>
                    <text id="Browser" font-family="SourceSansPro-Semibold, Source Sans Pro" font-size="11" font-weight="500" letter-spacing="0.392857134" fill="#343C5A">
                        <tspan x="11.315" y="17">Android</tspan>
                    </text>
                </g>
            </g>
            <g id="diagram-primary" transform="translate(103.100000, 124.400000)">
                <g id="diagram-button">
                    <g id="Rectangle-12-Copy-5">
                        <use fill="#FFFFFF" fill-rule="evenodd" xlink:href="#path-4"></use>
                        <rect stroke="#14CBC4" stroke-width="1.6" x="0.8" y="0.8" width="150.4" height="26.4" rx="13.2"></rect>
                    </g>
                    <text id="Browser" font-family="SourceSansPro-Semibold, Source Sans Pro" font-size="11" font-weight="500" letter-spacing="0.392857134" fill="#343C5A">
                        <tspan x="37.0813065" y="17">GraphQL Server</tspan>
                    </text>
                </g>
            </g>
            <g id="diagram-primary" transform="translate(132.000000, 214.000000)">
                <g id="diagram-button">
                    <g id="Rectangle-12-Copy-5">
                        <use fill="#FFFFFF" fill-rule="evenodd" xlink:href="#path-5"></use>
                        <rect stroke="#14CBC4" stroke-width="1.6" x="0.8" y="0.8" width="93.4" height="26.4" rx="13.2"></rect>
                    </g>
                    <text id="Browser" font-family="SourceSansPro-Semibold, Source Sans Pro" font-size="11" font-weight="500" letter-spacing="0.392857134" fill="#343C5A">
                        <tspan x="16.1759862" y="17">Microservice</tspan>
                    </text>
                </g>
            </g>
            <g id="diagram-primary" transform="translate(266.000000, 215.000000)">
                <g id="diagram-button">
                    <g id="Rectangle-12-Copy-5">
                        <use fill="#FFFFFF" fill-rule="evenodd" xlink:href="#path-6"></use>
                        <rect stroke="#14CBC4" stroke-width="1.6" x="0.8" y="0.8" width="88.4" height="26.4" rx="13.2"></rect>
                    </g>
                    <text id="Browser" font-family="SourceSansPro-Semibold, Source Sans Pro" font-size="11" font-weight="500" letter-spacing="0.392857134" fill="#343C5A">
                        <tspan x="22.3484493" y="17">3rd Party</tspan>
                    </text>
                </g>
            </g>
            <g id="diagram-primary" transform="translate(0.000000, 214.000000)">
                <g id="diagram-button">
                    <g id="Rectangle-12-Copy-5">
                        <use fill="#FFFFFF" fill-rule="evenodd" xlink:href="#path-7"></use>
                        <rect stroke="#14CBC4" stroke-width="1.6" x="0.8" y="0.8" width="88.4" height="26.4" rx="13.2"></rect>
                    </g>
                    <text id="Browser" font-family="SourceSansPro-Semibold, Source Sans Pro" font-size="11" font-weight="500" letter-spacing="0.392857134" fill="#343C5A">
                        <tspan x="23.1278779" y="17">REST API</tspan>
                    </text>
                </g>
            </g>
            <g id="Engine" transform="translate(93.000000, 91.000000)">
                <g id="Rectangle-12-Copy-8">
                    <use fill="#FFFFFF" fill-rule="evenodd" xlink:href="#path-8"></use>
                    <rect stroke="#E535AB" stroke-width="1.8" x="0.9" y="0.9" width="170.1" height="36" rx="18"></rect>
                </g>
                <text id="Apollo-Engine" font-family="SourceSansPro-Semibold, Source Sans Pro" font-size="12.6" font-weight="500" letter-spacing="0.449999988" fill="#343C5A">
                    <tspan x="56.5983001" y="23.8">Apollo Engine</tspan>
                </text>
                <g id="apollo-mark" transform="translate(32.400000, 9.900000)">
                    <g id="Group-3">
                        <circle id="Oval-3" fill="#FFFFFF" cx="9.9" cy="9.9" r="9.9"></circle>
                        <g id="icon-apollo-space" transform="translate(1.980000, 0.180000)">
                            <g id="Layer_2" transform="translate(0.000000, 0.000000)">
                                <g id="Apollo_icon_grey-link" transform="translate(8.550000, 9.090000) scale(-1, 1) rotate(-180.000000) translate(-8.550000, -9.090000) translate(0.000000, 0.540000)">
                                    <g id="Apollo_icon_grey" transform="translate(-0.000000, 0.000000)">
                                        <polygon id="Shape" points="15.1513043 0.459130435 0.459130435 0.459130435 0.459130435 15.1513043 15.1513043 15.1513043"></polygon>
                                        <g id="Group" transform="translate(0.041322, 0.041322)" fill="#343C5A" fill-rule="nonzero">
                                            <polygon id="Shape" points="8.6907012 11.682279 6.8229989 11.682279 4.12640077 4.68361804 5.81562882 4.68361804 6.25644111 5.86926149 8.80449485 5.86926149 8.34309324 7.18095174 6.66561616 7.18095174 7.75685005 10.1923154 9.69817171 4.68361804 11.3873998 4.68361804"></polygon>
                                            <path d="M15.1534372,9.81076013 C15.1489176,9.83466383 15.1423893,9.8576636 15.1337518,9.87985989 C15.1316427,9.88749301 15.1245118,9.90185531 15.1245118,9.90185531 C15.0635473,10.0341291 14.9300682,10.1262287 14.7747946,10.1262287 C14.5620718,10.1262287 14.3896237,9.95378057 14.3896237,9.74105776 C14.3896237,9.69776997 14.397056,9.65639046 14.4102131,9.61762228 L14.4092087,9.61722054 C14.5790455,9.01189457 14.6669267,8.37955139 14.6669267,7.73354897 C14.6669267,5.88161508 13.9456979,4.14046177 12.6362173,2.83088066 C11.3266362,1.52119913 9.58548286,0.800070793 7.73354897,0.800070793 C5.88161508,0.800070793 4.14036133,1.52129956 2.83088066,2.83088066 C1.52119913,4.14046177 0.800070793,5.88161508 0.800070793,7.73354897 C0.800070793,9.58548286 1.52129956,11.3266362 2.83088066,12.6362173 C4.14036133,13.9458988 5.88161508,14.6669267 7.73354897,14.6669267 C9.38732322,14.6669267 10.9523123,14.0914301 12.2008285,13.0358509 C12.1588464,12.9290878 12.1354449,12.8128837 12.1354449,12.6911556 C12.1354449,12.1710995 12.5570739,11.7495709 13.0770296,11.7495709 C13.5970856,11.7495709 14.0187147,12.1710995 14.0187147,12.6911556 C14.0187147,13.2112117 13.5970856,13.6327403 13.0770296,13.6327403 C12.9636377,13.6327403 12.8548658,13.6127536 12.7540283,13.5759941 C11.4056791,14.735926 9.65177042,15.4374694 7.73354897,15.4374694 C3.47879137,15.4374694 0.0297289675,11.9883066 0.0297289675,7.73354897 C0.0297289675,3.47879137 3.47879137,0.0296285318 7.73354897,0.0296285318 C11.9882061,0.0296285318 15.437369,3.47879137 15.437369,7.73354897 C15.437369,8.4532712 15.3380381,9.14989322 15.1534372,9.81076013 Z" id="Shape"></path>
                                        </g>
                                    </g>
                                </g>
                            </g>
                        </g>
                    </g>
                </g>
            </g>
        </g>
    </g>
</svg>